<?xml version="1.0" encoding="utf-8"?>
<!-- Generator: Adobe Illustrator 16.0.0, SVG Export Plug-In . SVG Version: 6.00 Build 0)  -->
<!DOCTYPE svg PUBLIC "-//W3C//DTD SVG 1.1//EN" "http://www.w3.org/Graphics/SVG/1.1/DTD/svg11.dtd">
<svg version="1.1" id="Calque_1" xmlns="http://www.w3.org/2000/svg" xmlns:xlink="http://www.w3.org/1999/xlink" x="0px" y="0px"
	 width="643.465px" height="203.686px" viewBox="0 0 643.465 203.686" enable-background="new 0 0 643.465 203.686"
	 xml:space="preserve">
<g>
	<g>
		<linearGradient id="SVGID_1_" gradientUnits="userSpaceOnUse" x1="91.9453" y1="144.8062" x2="261.2507" y2="42.135">
			<stop  offset="0" style="stop-color:#39B54A"/>
			<stop  offset="1" style="stop-color:#B2D235"/>
		</linearGradient>
		<path fill="url(#SVGID_1_)" d="M264.691,54.272c0.014-1.285-10.952-11.56-30.971-10.602
			c-54.461,4.338-67.487,101.144-135.903,105.89c5.457-0.268,11.347-0.985,17.66-2.32c49.332-10.443,69.281-81.581,106.215-93.93
			c21.875-6.893,32.069,2.57,32.069,2.57s-10.282,16.531-30.051,20.715c-16.775,3.221-22.644,1.484-22.644,1.484l0.092,0.808
			c0,0,10.266,3.774,29.19-0.233C250.755,74.336,265.179,56.061,264.691,54.272z"/>
	</g>
	<linearGradient id="SVGID_2_" gradientUnits="userSpaceOnUse" x1="20.1777" y1="128.2085" x2="265.6421" y2="27.5748">
		<stop  offset="0" style="stop-color:#006838"/>
		<stop  offset="0.411" style="stop-color:#39B54A"/>
		<stop  offset="1" style="stop-color:#B2D235"/>
	</linearGradient>
	<path fill="url(#SVGID_2_)" d="M214.174,45.38c-45.478,9.663-55.377,71.39-102.15,88.262c-31.683,9.777-52.187-1.855-52.187-1.855
		s13.917-48.898,75.476-53.17c13.202-0.916,27.348-0.884,27.348-0.884l-0.029-0.738c0,0-19.504-21.248-58.822-25.418
		C64.087,47.36,46.962,70.88,46.962,70.88s9.911,17.87,32.058,20.415l-2.522,1.568c-26.917,19.229-32.814,46.896-32.814,46.896
		s17.568,10.016,46.287,8.59c71.669-6.032,80.956-100.512,133.209-104.138C220.309,44.349,217.303,44.717,214.174,45.38z
		 M58.436,70.934c0,0,16.222-17.789,48.962-14.38c29.491,3.072,49.433,18.664,49.433,18.664s-13.46-1.064-27.296-0.106
		c-18.412,1.281-32.224,5.656-43.703,12.001C66.117,84.406,58.436,70.934,58.436,70.934z"/>
	<path fill="#58595B" d="M345.098,146.892c-0.106,2.729-1.106,4.95-2.975,6.604c-1.877,1.663-4.328,2.506-7.286,2.506
		c-2.954,0-5.415-0.91-7.316-2.706c-1.899-1.791-2.862-4.137-2.862-6.974v-6.617h24.932v-10.111c0-3.648-1.379-6.778-4.1-9.302
		c-2.718-2.519-6.273-3.796-10.568-3.796c-4.352,0-7.936,1.263-10.652,3.753c-2.719,2.498-4.098,5.642-4.098,9.345v17.389
		c0,3.703,1.378,6.847,4.098,9.343c2.715,2.491,6.299,3.754,10.652,3.754c4.188,0,7.659-1.249,10.317-3.714
		c2.664-2.462,4.127-5.641,4.351-9.448l0.016-0.272h-4.498L345.098,146.892z M324.658,130.338c0-2.837,0.978-5.198,2.903-7.021
		c1.928-1.821,4.375-2.744,7.275-2.744c2.901,0,5.364,0.91,7.32,2.706c1.951,1.79,2.94,4.137,2.94,6.975v5.373h-20.439V130.338z
		 M291.098,109.808h5.984v-6.311h-5.984V109.808z M535.266,116.496c-2.125,0-4.212,0.497-6.202,1.477
		c-2.008,0.991-3.287,1.765-3.913,2.363c-0.399,0.38-0.734,0.712-1.01,1.004l-0.227-4.013h-6.467v41.923h7.145v-28.002
		c0-2.01,1.015-3.909,3.015-5.644c2.015-1.743,4.341-2.628,6.916-2.628c2.836,0,5.057,0.851,6.602,2.526
		c1.548,1.681,2.333,3.837,2.333,6.409v27.338h7.138v-27.092c0-4.521-1.374-8.301-4.083-11.231
		C543.797,117.987,540.013,116.496,535.266,116.496z M211.66,137.097c-2.096-0.909-4.232-1.773-6.349-2.569
		c-2.091-0.789-3.876-1.806-5.308-3.022c-1.395-1.184-2.103-2.691-2.103-4.481c0-1.784,0.815-3.317,2.423-4.559
		c1.63-1.255,3.486-1.892,5.518-1.892c2.302,0,4.308,0.704,5.961,2.093c1.646,1.381,2.507,3.101,2.56,5.11l0.006,0.251h4.754
		l-0.022-0.279c-0.225-2.754-1.502-5.344-3.798-7.697c-2.308-2.359-5.379-3.556-9.13-3.556c-3.579,0-6.643,1.023-9.107,3.041
		c-2.481,2.026-3.739,4.713-3.739,7.984c0,2.537,0.76,4.697,2.258,6.422c1.483,1.706,3.31,3.039,5.432,3.961
		c2.099,0.909,4.22,1.774,6.306,2.57c2.056,0.784,3.827,1.841,5.265,3.139c1.398,1.27,2.108,2.877,2.108,4.779
		c0,2.175-0.834,4.003-2.479,5.435c-1.656,1.443-3.799,2.175-6.372,2.175c-2.681,0-4.935-0.842-6.7-2.501
		c-1.761-1.651-2.681-3.708-2.734-6.11l-0.005-0.252h-4.568v0.258c0,3.426,1.28,6.428,3.803,8.922
		c2.521,2.495,5.955,3.761,10.204,3.761c3.8,0,7.034-1.136,9.61-3.377c2.586-2.25,3.897-5.046,3.897-8.31
		c0-2.807-0.756-5.188-2.249-7.078C215.617,139.441,213.787,138.023,211.66,137.097z M265.461,146.892
		c-0.107,2.729-1.135,4.95-3.056,6.602c-1.932,1.664-4.327,2.508-7.121,2.508c-2.902,0-5.366-0.911-7.321-2.709
		c-1.949-1.791-2.938-4.081-2.938-6.805v-16.399c0-2.728,0.988-5.018,2.937-6.809c1.956-1.796,4.419-2.706,7.321-2.706
		c2.683,0,4.979,0.842,6.825,2.502c1.846,1.657,2.834,3.797,2.938,6.359l0.01,0.248h4.581l-0.017-0.273
		c-0.223-3.64-1.671-6.733-4.305-9.198c-2.631-2.466-6.007-3.716-10.032-3.716c-4.412,0-8.01,1.32-10.695,3.925
		c-2.691,2.602-4.055,5.91-4.055,9.834v16.067c0,3.977,1.364,7.299,4.056,9.874c2.688,2.576,6.287,3.883,10.695,3.883
		c4.135,0,7.581-1.264,10.241-3.756c2.659-2.492,4.121-5.657,4.344-9.405l0.016-0.273h-4.416L265.461,146.892z M595.363,121.042
		c-3.095-3.017-7.125-4.546-11.979-4.546c-4.902,0-8.961,1.515-12.064,4.502c-3.104,2.992-4.678,6.692-4.678,10.995v12.505
		c0,4.358,1.56,8.085,4.636,11.075c3.073,2.99,7.146,4.506,12.106,4.506c4.854,0,8.883-1.516,11.978-4.505
		c3.103-2.988,4.676-6.687,4.676-10.99v-12.591C600.038,127.744,598.466,124.059,595.363,121.042z M592.731,144.996
		c0,2.406-0.851,4.477-2.529,6.153c-1.682,1.682-3.976,2.534-6.817,2.534c-2.844,0-5.166-0.867-6.902-2.578
		c-1.733-1.706-2.613-3.79-2.613-6.193v-13.333c0-2.399,0.879-4.468,2.612-6.148c1.734-1.684,4.058-2.538,6.903-2.538
		c2.841,0,5.135,0.854,6.817,2.535c1.679,1.677,2.529,3.746,2.529,6.151V144.996z M385.692,116.496
		c-2.297,0-4.455,0.525-6.415,1.562c-1.979,1.045-3.209,1.864-3.76,2.503c-0.3,0.347-0.556,0.654-0.773,0.927l-0.148-4.16h-4.4
		v41.923h4.575v-29.245c0-2.562,1.057-4.81,3.141-6.683c2.096-1.879,4.658-2.832,7.616-2.832c2.895,0,5.255,0.922,7.018,2.739
		c1.767,1.818,2.662,4.377,2.662,7.604v28.416h4.572v-29.245c0-3.808-1.292-7.045-3.841-9.622
		C393.387,117.803,389.939,116.496,385.692,116.496z M484.578,116.496c-3.851,0-7.289,1.189-10.221,3.534
		c-2.941,2.351-4.632,5.308-5.024,8.789l-0.032,0.287h7.051l0.033-0.219c0.267-1.745,1.151-3.164,2.629-4.22
		c1.498-1.068,3.37-1.61,5.564-1.61c2.398,0,4.329,0.754,5.736,2.238c1.409,1.493,2.124,3.301,2.124,5.373v1.911l-11.111,0.729
		c-3.852,0.279-7.164,1.709-9.847,4.252c-2.689,2.55-4.054,5.692-4.054,9.341c0,3.76,1.465,6.932,4.354,9.428
		c2.878,2.487,6.349,3.749,10.314,3.749c2.127,0,4.169-0.44,6.069-1.31c1.928-0.879,3.144-1.572,3.716-2.117
		c0.316-0.301,0.584-0.564,0.807-0.798v3.396h6.976V130.17c0-3.919-1.32-7.213-3.926-9.79
		C493.128,117.802,489.374,116.496,484.578,116.496z M492.438,145.989c0,1.787-0.945,3.52-2.809,5.148
		c-1.881,1.634-4.304,2.462-7.202,2.462c-2.187,0-4.067-0.675-5.588-2.007c-1.51-1.323-2.275-2.931-2.275-4.776
		c0-1.9,0.698-3.523,2.075-4.821c1.383-1.304,3.141-2.046,5.225-2.206l10.574-0.726V145.989z M441.698,136.519
		c-2.088-0.908-4.199-1.72-6.275-2.411c-2.028-0.675-3.792-1.5-5.239-2.454c-1.399-0.925-2.079-2.005-2.079-3.304
		c0-1.535,0.607-2.785,1.856-3.819c1.239-1.031,2.896-1.555,4.927-1.555c2.122,0,3.8,0.654,4.986,1.944
		c1.19,1.299,1.794,2.814,1.794,4.505v0.258h7.307v-0.919c0-2.869-1.205-5.658-3.583-8.291c-2.387-2.64-5.921-3.978-10.504-3.978
		c-4.185,0-7.641,1.15-10.271,3.418c-2.644,2.278-3.983,5.284-3.983,8.935c0,2.429,0.761,4.506,2.26,6.176
		c1.481,1.649,3.324,2.926,5.479,3.792c2.121,0.854,4.256,1.65,6.347,2.366c2.059,0.701,3.832,1.607,5.271,2.694
		c1.39,1.044,2.095,2.34,2.095,3.852c0,1.698-0.699,3.067-2.137,4.185c-1.439,1.119-3.31,1.687-5.559,1.687
		c-2.668,0-4.709-0.738-6.063-2.195c-1.356-1.462-2.044-3.061-2.044-4.752v-1.002h-7.139v0.838c0,1.402,0.269,2.866,0.8,4.351
		c0.529,1.476,1.35,2.947,2.439,4.376c1.104,1.438,2.713,2.621,4.783,3.516c2.069,0.896,4.5,1.349,7.224,1.349
		c4.122,0,7.688-1.189,10.6-3.537c2.921-2.362,4.402-5.271,4.402-8.647c0-2.806-0.757-5.199-2.25-7.114
		C445.659,138.877,443.828,137.444,441.698,136.519z M291.809,160.079h4.591v-42.813h-4.591V160.079z"/>
</g>
</svg>
